<?xml version="1.0" encoding="UTF-8"?>
<svg width="56px" height="56px" viewBox="0 0 56 56" version="1.1" xmlns="http://www.w3.org/2000/svg" xmlns:xlink="http://www.w3.org/1999/xlink">
    <title>hivemq-bee-edge-neg</title>
    <g id="assets" stroke="none" stroke-width="1" fill="none" fill-rule="evenodd">
        <g id="Group-2" transform="translate(3.0769, 4.0738)">
            <polygon id="Path" fill="#000000" fill-rule="nonzero" points="24.9230769 0 4.93554591 8.57060031 0 30.1987977 13.8312691 47.5432001 36.0148847 47.5432001 49.8461538 30.1987977 44.9106079 8.57060031"></polygon>
            <polygon id="Path" fill="#FFC000" fill-rule="nonzero" points="24.9230769 3.71633512 7.4748158 10.8931216 3.16543247 29.1692419 15.2401349 43.8253598 34.6060189 43.8253598 46.6807214 29.1692419 42.371338 10.8931216"></polygon>
            <path d="M21.5333699,18.0307729 C21.2940433,16.5391212 22.0827673,15.0489747 23.4540032,14.4137809 C23.6933297,15.9054327 22.9015953,17.3925688 21.5333699,18.0307729 Z" id="Path" fill="#FFFFFF"></path>
            <path d="M14.6997686,23.8182612 C14.6997686,23.8182612 14.8171741,23.5322735 14.5417228,23.2718742 C13.3119756,22.1113661 10.5965975,19.365884 12.1454468,18.57716 C13.8704043,17.6996293 18.5831808,18.9534596 23.801704,21.7064677 C21.1691118,23.2312338 19.3613684,24.4895798 17.4587975,26.0263874 C15.3500144,24.4820538 14.9737148,24.1373633 14.6982634,23.816756 L14.6997686,23.8182612 Z" id="Path" fill="#FFFFFF"></path>
            <path d="M35.3405558,32.8088119 C34.7460024,33.6983842 33.0240553,33.2995066 30.2605108,32.4626163 C30.1340742,32.4264915 30.0091427,32.4295019 29.8947476,32.4746578 C30.739164,31.2509315 30.9227982,28.9961441 30.6277793,27.3509621 C30.6247689,27.3449413 30.6247689,27.3359101 30.6247689,27.3268789 C30.6217585,27.3208581 30.6217585,27.3178478 30.6217585,27.3148374 C30.5329518,26.6706124 30.3914631,26.1618553 30.2289017,25.9345703 C33.901586,28.889275 35.9471508,31.7732353 35.3405558,32.8103171 L35.3405558,32.8088119 Z" id="Path" fill="#FFFFFF"></path>
            <path d="M32.4340175,26.0595018 C30.5750973,24.4971057 28.684568,23.2342442 26.0519758,21.7094781 C31.270499,18.9579752 35.9742444,17.7327436 37.6992019,18.6102744 C39.2480511,19.3989984 36.5296626,22.1414701 35.3029258,23.3049885 C35.0846721,23.5112007 35.137354,23.604523 35.14488,23.8513756 C34.8694287,24.1719829 34.5443058,24.5166733 32.4355227,26.061007 L32.4340175,26.0595018 Z" id="Path" fill="#FFFFFF"></path>
            <path d="M19.6187574,25.89393 C19.4561959,26.1212149 19.3147073,26.629972 19.2259006,27.274197 C19.2259006,27.2772074 19.2259006,27.2802178 19.2228902,27.2862386 C19.2228902,27.2952698 19.2228902,27.304301 19.2198798,27.3103218 C18.9248609,28.9555037 19.1100003,31.2102911 19.9529114,32.4340175 C19.8400216,32.3873563 19.7135849,32.3843459 19.5871482,32.4219759 C16.8220985,33.2588663 15.1016566,33.6577439 14.5071032,32.7681716 C13.899003,31.7310898 15.946073,28.8471294 19.6187574,25.8924248 L19.6187574,25.89393 Z" id="Path" fill="#FFFFFF"></path>
            <path d="M24.8824366,37.2310851 C25.7991025,35.576872 26.2777556,35.0094121 26.8888662,34.3681976 L22.8760069,34.3681976 C23.4901279,35.0094121 23.9657707,35.576872 24.8824366,37.2310851 L24.8824366,37.2310851 Z" id="Path" fill="#000000" fill-rule="nonzero"></path>
            <path d="M20.2780343,30.6353053 C20.4992985,31.3713473 20.8485046,32.0652439 21.3241473,32.6658181 L28.442231,32.6658181 C28.9208842,32.0652439 29.2670798,31.3713473 29.488344,30.6353053 L20.2780343,30.6353053 L20.2780343,30.6353053 Z" id="Path" fill="#000000" fill-rule="nonzero"></path>
            <path d="M29.4055581,26.4869782 C28.0433534,25.4905368 26.5215977,24.4895798 24.8824366,23.5322735 C23.2447806,24.4895798 21.7230249,25.4890316 20.3638306,26.4869782 C20.0944001,27.266671 19.9739842,28.1035614 20.0010778,28.9329258 L29.7637953,28.9329258 C29.7908889,28.1050666 29.6719782,27.266671 29.4040529,26.4869782 L29.4055581,26.4869782 Z" id="Path" fill="#000000" fill-rule="nonzero"></path>
            <path d="M35.3029258,23.3019781 C35.0786513,23.5142111 35.0666097,23.8664276 35.2758323,24.0937125 L35.3525974,24.1795089 C38.5857638,21.4174696 40.5319855,19.2830981 39.5626376,17.598781 C38.4954519,16.1101396 33.9964135,16.8160778 28.4813662,19.2981501 C28.7598279,18.736711 28.8983062,18.1195797 28.8983062,17.5069639 C28.8983062,17.2796789 28.8802438,17.0523939 28.8396034,16.8296245 C28.707146,16.0378901 28.3368671,15.2777649 27.7257565,14.6696647 C27.3946129,14.3355106 27.0137977,14.0751113 26.6088993,13.8839511 L26.6269616,13.8403003 L26.629972,13.8403003 L27.0529328,12.9191188 C27.1206667,12.7716094 27.0559432,12.5970063 26.9084338,12.5292724 C26.7609243,12.4615385 26.5863213,12.526262 26.5185873,12.6737715 L26.0579966,13.6702129 C25.2933558,13.4369071 24.4715174,13.4369071 23.7083817,13.6702129 L23.247791,12.6737715 C23.180057,12.526262 23.005454,12.4615385 22.8579446,12.5292724 C22.7104351,12.5970063 22.6457116,12.7716094 22.7134455,12.9191188 L23.1243647,13.8086911 L23.1574791,13.8794355 C22.7525807,14.0721009 22.3747758,14.3340054 22.0406218,14.6681595 C21.2398562,15.4689251 20.8500098,16.5270796 20.8710825,17.5822238 C20.8801137,18.152694 21.0095608,18.7201539 21.2609289,19.2484785 C19.8340008,18.6102744 11.9151514,15.3304468 10.319641,17.5671718 C8.87465041,19.600695 13.3134808,23.1634999 14.5010824,24.1795089 L14.5778476,24.0937125 C14.7870702,23.8664276 14.7735234,23.5142111 14.5537644,23.3019781 C13.9712526,22.7525807 13.0560919,21.8479564 12.4178877,20.9644048 C11.5809973,19.805402 11.5584194,19.1205367 11.9633178,18.7397214 C13.2246741,17.5551302 17.9028311,19.1235471 19.3538424,19.6759549 C20.7461511,20.2103004 22.2498444,20.8906501 23.8001988,21.7064677 C16.3840858,26.0053147 11.3461864,31.141052 12.5367984,33.2001635 C13.2818716,34.4916238 16.3840858,34.3230416 20.3698514,32.9171862 L20.2253524,32.68087 C20.0898845,32.4565955 19.8294852,32.3557472 19.578117,32.4325123 C16.8130674,33.2694027 15.0926255,33.6682803 14.498072,32.7787079 C13.6672025,31.3397382 17.8817583,26.3816143 24.4323822,22.6020608 L24.9230769,22.3190835 C25.0886488,22.4109006 25.2542206,22.5057281 25.416782,22.6020608 C31.9674059,26.3816143 36.183467,31.3397382 35.3510922,32.7787079 C34.7565388,33.6682803 33.0345917,33.2694027 30.2710472,32.4325123 C30.0196791,32.3557472 29.7592797,32.4565955 29.6238119,32.68087 L29.4793128,32.9171862 C33.4650785,34.3230416 36.5672926,34.4916238 37.3123659,33.2001635 C38.4999675,31.141052 33.4650785,26.0053147 26.0489654,21.7064677 C31.2674886,18.9549648 35.971234,17.7297332 37.6961915,18.607264 C39.2450407,19.395988 36.5266522,22.1384597 35.2999154,23.3019781 L35.3029258,23.3019781 Z M21.5333699,18.0307729 C21.2940433,16.5391212 22.0827673,15.0489747 23.4540032,14.4137809 C23.6933297,15.9054327 22.9015953,17.3925688 21.5333699,18.0307729 Z M28.2059149,18.0337833 C26.834679,17.3955792 26.045955,15.9069379 26.2852816,14.4167913 C27.653507,15.0519851 28.4452414,16.5436368 28.2059149,18.0337833 Z" id="Shape" fill="#000000" fill-rule="nonzero"></path>
            <path d="M28.2059149,18.0337833 C26.834679,17.3955792 26.045955,15.9069379 26.2852816,14.4167913 C27.653507,15.0519851 28.4452414,16.5436368 28.2059149,18.0337833 Z" id="Path" fill="#FFFFFF"></path>
        </g>
    </g>
</svg>